<svg xmlns="http://www.w3.org/2000/svg" viewBox="0 0 675.6 522.55"><defs><style>.cls-1{isolation:isolate;}.cls-2{fill:#eaddd3;opacity:0.5;mix-blend-mode:multiply;}.cls-3{fill:#f3682e;}</style></defs><title>figure</title><g class="cls-1"><g id="Capa_1" data-name="Capa 1"><path class="cls-2" d="M-677.16,108.92a22.49,22.49,0,0,0,31.82,0l110-110a22.5,22.5,0,0,1,31.82,0,22.5,22.5,0,0,1,0,31.81l-67.58,67.58a22.5,22.5,0,0,0,0,31.82,22.49,22.49,0,0,0,31.82,0l3.08-3.08a22.5,22.5,0,0,1,31.81,0,22.49,22.49,0,0,1,0,31.82l-8.54,8.55a22.48,22.48,0,0,0,0,31.81,22.48,22.48,0,0,0,31.81,0L-254.64-27.24a22.5,22.5,0,0,0,0-31.82,22.51,22.51,0,0,0-31.82,0l-6.17,6.18a22.51,22.51,0,0,1-31.82,0,22.49,22.49,0,0,1,0-31.82l27.73-27.72a22.5,22.5,0,0,0,0-31.82,22.51,22.51,0,0,0-31.82,0L-407.3-65.49a22.49,22.49,0,0,1-31.82,0,22.5,22.5,0,0,1,0-31.81l114.39-114.38a22.51,22.51,0,0,0,0-31.82,22.51,22.51,0,0,0-31.82,0L-506.14-93.91l-21.43,21.42L-677.16,77.11A22.5,22.5,0,0,0-677.16,108.92Z" transform="translate(923.66 316.76)"/><path class="cls-2" d="M-494.55-219.89a22.51,22.51,0,0,0-31.82,0l-110,110a22.51,22.51,0,0,1-31.82,0,22.51,22.51,0,0,1,0-31.82l67.58-67.57a22.51,22.51,0,0,0,0-31.83,22.51,22.51,0,0,0-31.82,0l-3.07,3.08a22.49,22.49,0,0,1-31.82,0,22.51,22.51,0,0,1,0-31.82l8.54-8.54a22.49,22.49,0,0,0,0-31.82,22.5,22.5,0,0,0-31.81,0L-917.07-83.73a22.51,22.51,0,0,0,0,31.82,22.49,22.49,0,0,0,31.82,0l6.18-6.17a22.48,22.48,0,0,1,31.81,0,22.48,22.48,0,0,1,0,31.81L-875,1.46a22.49,22.49,0,0,0,0,31.82,22.5,22.5,0,0,0,31.81,0l78.76-78.76a22.49,22.49,0,0,1,31.82,0,22.5,22.5,0,0,1,0,31.81L-847,100.71a22.52,22.52,0,0,0,0,31.83,22.51,22.51,0,0,0,31.82,0l149.59-149.6,21.43-21.42,149.59-149.59A22.49,22.49,0,0,0-494.55-219.89Z" transform="translate(923.66 316.76)"/><path class="cls-3" d="M-589.94,43.39a13.76,13.76,0,0,0-19.45,0l-5.22,5.23a13.75,13.75,0,0,1-19.45,0,13.74,13.74,0,0,1,0-19.45l27.83-27.83a13.77,13.77,0,0,0,0-19.46,13.75,13.75,0,0,0-19.45,0l-67.26,67.27a13.77,13.77,0,0,1-19.46,0,13.75,13.75,0,0,1,0-19.45l27.27-27.27a13.75,13.75,0,0,0,0-19.45,13.77,13.77,0,0,0-19.46,0L-809.13,87.53a13.75,13.75,0,0,0,0,19.45,13.74,13.74,0,0,0,19.45,0L-771.2,88.5a13.75,13.75,0,0,1,19.45,0,13.75,13.75,0,0,1,0,19.45l-69.93,69.93a13.77,13.77,0,0,0,0,19.45,13.77,13.77,0,0,0,19.46,0l38.72-38.73a13.75,13.75,0,0,1,19.45,0,13.75,13.75,0,0,1,0,19.45l-3.77,3.78a13.75,13.75,0,0,0,0,19.45,13.75,13.75,0,0,0,19.45,0L-589.94,62.85A13.77,13.77,0,0,0-589.94,43.39Z" transform="translate(923.66 316.76)"/></g></g></svg>